<svg width="113" height="140" viewBox="0 0 113 140" fill="none" xmlns="http://www.w3.org/2000/svg">
<path d="M40.4042 79.9023C40.6858 80.3851 33.1623 97.7254 20.5293 91.8112C11.9999 87.8282 9.38482 83.3624 9.38482 83.3624L5.40179 86.9431C5.40179 86.9431 12.4425 99.3749 22.0581 104.002C34.8521 110.157 49.6979 103.157 51.0658 87.7879C52.5142 72.4593 40.4042 79.9023 40.4042 79.9023Z" fill="#B6705E"/>
<path d="M73.234 18.3463C73.234 18.3463 80.5966 16.9784 83.0105 27.2377C85.2636 36.8533 80.6368 45.5033 87.9592 46.2275C88.4419 46.2677 89.0052 46.2677 89.6087 46.2677C99.2243 45.8654 73.4754 64.131 64.8254 46.2677C56.1352 28.3642 73.234 18.3463 73.234 18.3463Z" fill="#FF9D00"/>
<path d="M58.6698 48.9232L54.0028 54.4753C39.841 45.785 35.3751 34.1176 34.7314 24.6227C34.2889 17.7831 35.8579 12.0701 37.2661 9.33428C38.1914 7.52381 38.9156 6.47776 38.9156 6.47776C38.9156 6.47776 38.1512 2.97752 38.3524 2.81659C38.5535 2.65566 39.4386 4.10404 39.4386 4.10404C39.4386 4.10404 39.3179 1.12682 39.6398 1.24752C39.9214 1.36822 40.1628 3.62124 40.2031 3.82241C40.3238 3.54078 41.7721 -0.44225 41.9733 0.0405415C42.2147 0.563565 41.2893 4.50636 41.2893 4.50636C41.2893 4.50636 43.7435 0.965892 43.9849 1.40845C44.2665 1.85101 42.3354 5.71334 42.3354 5.71334C42.3354 5.71334 44.5079 4.46613 44.7091 4.94892C44.9505 5.47194 42.2549 7.20195 42.2549 7.20195C41.8526 8.56985 41.571 9.93776 41.41 11.3057C39.9214 24.502 48.6921 39.0259 56.1754 42.6871C58.1468 43.6527 58.1066 46.7908 58.6698 48.9232Z" fill="#DB005D"/>
<path d="M102.121 77.7297C101.558 78.9367 100.914 80.3851 100.391 81.5921C93.1492 80.0632 78.2631 74.2697 70.458 60.7516L67.6014 42.9688H67.7624C70.6591 43.0492 73.2742 44.6988 74.4812 47.3139C78.3436 55.4409 87.9189 72.8214 101.357 77.4883C101.638 77.5688 101.88 77.6493 102.121 77.7297Z" fill="#DB005D"/>
<path d="M67.6014 42.9689L70.7396 58.6194L69.5326 68.235L63.5379 70.2868L54.727 68.7178L53.3188 51.8201L56.1754 42.6873L67.6014 42.9689Z" fill="#B6705E"/>
<path d="M108.075 82.2759C108.075 82.2759 110.329 83.6841 110.329 84.0462C110.329 84.4083 107.633 83.0001 107.472 82.9197C107.552 83.0404 108.438 84.4485 108.196 84.5692C107.955 84.6497 104.897 82.2759 104.897 82.2759C104.897 82.2759 103.167 82.1552 100.431 81.592H100.391C100.914 80.4252 101.558 78.9769 102.121 77.7296C102.161 77.7296 102.161 77.7296 102.202 77.7699C103.368 78.132 104.575 78.4136 105.782 78.6148C105.782 78.6148 108.759 76.8445 109.122 77.3273C109.443 77.7296 107.231 79.2585 107.231 79.2585C107.231 79.2585 111.857 79.2183 112.179 79.701C112.501 80.1838 107.915 80.8678 107.915 80.8678C107.915 80.8678 112.139 81.8334 112.582 82.3162C112.984 82.799 108.075 82.2759 108.075 82.2759Z" fill="#B6705E"/>
<path d="M56.3363 33.6749C56.2558 33.7956 56.1754 33.9163 56.0949 34.0773C56.6582 34.6003 57.4628 34.9624 58.3882 35.1233C59.4745 35.3245 60.4803 35.1636 61.2447 34.721C61.0435 34.1577 60.6814 33.6347 60.1584 33.2324C58.9112 32.307 57.1812 32.5082 56.3363 33.6749Z" fill="#821A39"/>
<path d="M68.5268 35.1636L64.9461 42.8882L58.6698 42.7675L59.8365 39.7501L68.5268 35.1636Z" fill="#A66656"/>
<path d="M73.3547 24.9042L71.4236 29.6516C69.9752 34.7612 64.7047 41.0777 58.5894 39.5891C55.0087 38.704 52.9568 35.767 51.8303 33.1519C48.2496 24.6226 55.6524 10.4607 67.0382 14.6046C71.6247 16.2139 74.441 21.0419 73.3547 24.9042Z" fill="#B6705E"/>
<path d="M68.1647 30.4563C66.9578 32.0656 67.3199 34.3589 68.9292 35.5659C70.5385 36.7728 72.8317 36.4107 74.0387 34.8014C75.2457 33.1921 74.8836 30.8989 73.2743 29.6919C71.665 28.4849 69.3717 28.8068 68.1647 30.4563Z" fill="#B6705E"/>
<path d="M63.6586 27.6802C63.4977 28.4849 63.0551 29.0481 62.7333 28.9677C62.3712 28.8872 62.2505 28.2033 62.4114 27.3986C62.5724 26.594 63.0149 26.0307 63.3368 26.1112C63.6586 26.1916 63.8196 26.9158 63.6586 27.6802Z" fill="#57352D"/>
<path d="M55.3305 24.7835C55.1696 25.5882 54.727 26.1514 54.4052 26.0709C54.0431 25.9905 53.9224 25.3065 54.0833 24.5019C54.2442 23.6972 54.6868 23.134 55.0087 23.2144C55.3305 23.2949 55.4914 24.0191 55.3305 24.7835Z" fill="#57352D"/>
<path d="M72.5903 32.7496C72.5903 32.7496 72.4294 31.4219 71.1419 31.5829C69.8545 31.7438 69.774 33.514 70.458 33.7957C71.1419 34.0773 71.1017 32.8703 71.1017 32.8703C71.1017 32.8703 71.8661 32.1059 72.5903 32.7496Z" fill="#A66656"/>
<path d="M60.6009 32.6289C60.6814 32.5484 54.7672 30.8586 54.7672 30.8586C54.7672 30.8586 57.1409 36.7326 60.6009 32.6289Z" fill="white"/>
<path d="M65.9519 25.7492C65.9519 25.7492 64.9059 24.1802 63.6184 24.1802L65.9519 25.7492Z" fill="#57352D"/>
<path d="M56.0145 21.5651C56.0145 21.5651 54.6466 21.0421 53.8821 22.1283L56.0145 21.5651Z" fill="#57352D"/>
<path d="M71.6649 55.8031L70.6993 58.5791L53.8016 57.7343L53.3188 51.8201L56.1754 42.6873L67.7624 42.9287L71.3431 50.5728C72.1477 52.2626 72.2282 54.1133 71.6649 55.8031Z" fill="#DB005D"/>
<path d="M67.2394 17.5417C67.2394 17.5417 66.7566 28.3643 73.2743 29.692C73.2743 29.6518 83.775 17.9843 67.2394 17.5417Z" fill="#FF9D00"/>
<path d="M73.1938 20.036C73.1938 20.036 74.9238 7.48344 62.0091 8.48926C49.0944 9.49507 53.1579 20.3579 53.1579 20.3579C53.1579 20.3579 56.8593 11.5872 68.2452 19.8349C68.2452 19.8349 70.9407 23.1339 69.6131 21.9269C66.6761 19.3118 73.1938 20.036 73.1938 20.036Z" fill="#FF9D00"/>
<path d="M68.8084 66.3841C68.8084 66.3841 73.8777 68.4762 78.4642 87.1039C82.0852 101.789 94.7584 106.617 94.7584 106.617C94.7584 106.617 64.2219 117.399 59.1526 91.0467C54.0833 64.6541 68.8084 66.3841 68.8084 66.3841Z" fill="#574380"/>
<path d="M57.0203 20.0762C52.3533 17.9841 50.6635 15.0874 50.6635 15.0874C48.0886 18.9497 47.0024 27.0365 54.1638 28.3239C60.2791 29.4102 61.2447 21.9672 57.0203 20.0762ZM56.2961 24.9846C54.0431 27.5595 52.3533 21.766 52.3533 21.766C52.3533 21.766 57.7042 23.3753 56.2961 24.9846Z" fill="#574380"/>
<path d="M65.9519 22.973C61.5263 21.8868 58.6698 24.6628 58.6698 24.6628C58.3479 28.3642 60.2791 31.5828 64.4633 31.5828C69.1705 31.5828 73.5559 23.6168 73.5559 23.6168C73.5559 23.6168 70.3775 24.0191 65.9519 22.973ZM62.4517 28.2033C61.6872 27.5998 61.647 26.9561 61.8482 26.5135C62.0493 26.0307 62.4517 25.7089 62.9345 25.5882C64.9059 25.1456 66.8772 25.91 66.8772 25.91C66.8772 25.91 63.9805 29.4505 62.4517 28.2033Z" fill="#574380"/>
<path d="M67.8026 70.7695C67.8026 70.7695 84.3382 100.703 61.4458 139.809H56.4167C56.4167 139.809 64.8656 111.968 57.3823 94.7079C57.3823 94.7482 63.4977 78.7758 67.8026 70.7695Z" fill="#B6705E"/>
<path d="M68.7682 68.7177C68.7682 68.7177 75.3664 88.6328 63.2161 100.703C52.9166 110.922 45.6747 108.87 45.6747 108.87C45.6747 108.87 50.4624 95.0298 47.807 84.7705C43.0596 66.3842 59.0319 64.0105 68.7682 68.7177Z" fill="#6C539E"/>
<path d="M55.8535 63.8896C55.8535 63.8896 44.7091 65.861 37.8696 75.5571C28.9379 88.2706 18.8798 82.115 18.8798 82.115C18.8798 82.115 28.4149 106.818 44.7896 94.5067C58.187 84.4887 55.8535 63.8896 55.8535 63.8896Z" fill="#574380"/>
<path d="M54.3247 61.0332L51.4682 65.3381C51.4682 65.3381 57.0203 70.0855 69.6936 66.9876L70.3775 61.5562C70.3373 61.5965 61.5264 64.4932 54.3247 61.0332Z" fill="#7BCDC1"/>
<path d="M9.86764 83.483C9.86764 83.483 9.02276 81.7932 8.62043 81.9139C8.29857 81.9944 2.66601 86.2992 0.0911181 88.3511C-0.110045 88.512 0.0508855 88.7937 0.292281 88.7132L5.36159 87.6672L9.86764 83.483Z" fill="#2A2A4B"/>
</svg>
